<?xml version="1.0" encoding="utf-8"?>
<!-- Generator: Adobe Illustrator 27.5.0, SVG Export Plug-In . SVG Version: 6.00 Build 0)  -->
<svg version="1.1" id="Layer_1" xmlns="http://www.w3.org/2000/svg" xmlns:xlink="http://www.w3.org/1999/xlink" x="0px" y="0px"
	 viewBox="0 0 294.627 202.658" style="enable-background:new 0 0 294.627 202.658;" xml:space="preserve">
<g>
	<g>
		<g>
			<path style="fill:#D9D9DB;" d="M280.774,77.113c2.343-3.628,3.652-7.892,3.581-12.219c-0.053-3.24-0.995-6.464-2.586-9.298
				c-0.841-4.259-2.633-8.424-4.759-11.888c-5.542-9.031-13.794-16.091-23.136-20.981c-22.481-11.77-48.828-9.995-72.791-4.32
				c-10.407,2.465-20.807,5.316-30.572,9.65c-5.644,0.719-11.269,1.589-16.875,2.541c-18.445,3.132-37.294,7.577-53.22,17.832
				c-2.326,1.498-4.59,3.128-6.772,4.865c-0.234,0.067-0.47,0.128-0.703,0.197c-8.029,2.358-15.833,5.55-23.057,9.795
				c-6.428,3.777-12.414,8.4-17.524,13.84c-0.511,0.544-1.019,1.102-1.526,1.669c-1.228,1.151-2.43,2.338-3.577,3.602
				c-6.784,7.477-12.353,17.974-8.423,28.183c0.509,1.324,1.208,2.536,2.031,3.662c-0.286,0.563-0.585,1.12-0.834,1.702
				c-1.147,2.681-1.894,5.502-2.237,8.382c-0.319,1.71-0.42,3.479-0.281,5.298c-0.029,0.636-0.05,1.274-0.059,1.913
				c-0.06,4.347,0.721,8.304,3.269,11.893c0.009,0.013,0.02,0.025,0.029,0.038c-0.134,0.579-0.249,1.168-0.318,1.779
				c-0.429,3.761,0.526,7.593,2.369,10.871c1.762,3.132,4.522,6.209,7.787,8.149c0.32,1.364,0.69,2.544,0.852,3.008
				c1.347,3.87,3.677,7.437,6.682,10.227c5.527,5.132,13.019,7.442,20.414,6.614c0.271,0.257,0.545,0.513,0.834,0.76
				c3.173,2.722,6.876,4.758,10.895,5.918c4.301,1.242,8.894,1.469,13.303,0.69c0.257-0.046,0.512-0.105,0.768-0.156
				c0.227,0.372,0.478,0.734,0.769,1.083c2.027,2.425,5.176,3.658,8.278,3.869c3.432,0.233,6.856-0.632,9.967-2.036
				c0.219-0.099,0.429-0.217,0.645-0.32c1.227,1.009,2.609,1.864,4.014,2.581c3.215,1.64,6.832,2.544,10.44,2.625
				c7.097,0.159,13.938-3.001,18.698-8.224c4.024,1.604,8.636,1.326,12.824-0.517c3.314-1.459,6.243-3.669,8.807-6.205
				c0.964-0.954,1.866-1.967,2.747-2.997c0.612,0.129,1.254,0.177,2.016,0.103c1.626-0.158,3.276-0.613,4.816-1.149
				c3.035-1.055,5.941-2.642,8.49-4.594c2.566-1.964,4.845-4.267,6.762-6.87c0.363-0.494,0.701-1.007,1.036-1.521
				c3.79,1.259,7.735,1.739,11.544-0.154c2.236-1.112,4.111-2.937,5.339-5.109c0.167-0.296,0.338-0.634,0.508-0.99
				c2.319,0.515,4.835,0.511,7.016,0.289c3.734-0.38,7.375-1.576,10.63-3.439c2.725-1.56,5.203-3.661,7.143-6.153
				c1.989,0.261,4.013,0.248,6.004,0.035c4.268-0.458,8.437-1.914,12.13-4.087c3.785-2.227,7.158-5.335,9.495-9.071
				c0.205-0.329,0.407-0.688,0.605-1.062c5.216,0.043,10.586-2.494,14.316-5.869c5.435-4.919,7.823-12.404,6.655-19.6
				c-0.139-0.856-0.337-1.705-0.572-2.544c1.265-1.227,2.404-2.603,3.372-4.073c2.148-3.265,3.536-7.079,3.805-10.988
				c0.36-5.231-1.203-10.174-4.132-14.242C279.365,79.119,280.137,78.099,280.774,77.113z"/>
			<path style="fill:#9BA0A8;" d="M118.971,199.618c-0.177,0-0.353-0.002-0.53-0.006c-3.695-0.082-7.377-1.008-10.65-2.678
				c-1.454-0.743-2.75-1.562-3.854-2.439c-0.127,0.065-0.254,0.13-0.384,0.189c-3.542,1.598-6.976,2.296-10.2,2.079
				c-3.53-0.241-6.67-1.714-8.616-4.042c-0.22-0.264-0.427-0.544-0.627-0.85c-0.151,0.032-0.302,0.064-0.454,0.09
				c-4.501,0.795-9.178,0.552-13.522-0.701c-4.062-1.173-7.788-3.197-11.076-6.016c-0.238-0.203-0.465-0.411-0.69-0.621
				c-7.603,0.788-15.088-1.672-20.573-6.765c-3.078-2.857-5.432-6.462-6.81-10.423c-0.161-0.464-0.507-1.566-0.818-2.857
				c-3.062-1.868-5.891-4.853-7.786-8.221c-1.985-3.528-2.846-7.492-2.429-11.164c0.059-0.51,0.149-1.03,0.279-1.622
				c-2.299-3.314-3.33-7.138-3.261-12.041c0.008-0.643,0.03-1.286,0.06-1.928c-0.139-1.771-0.042-3.597,0.289-5.366
				c0.345-2.912,1.109-5.777,2.267-8.483c0.202-0.472,0.436-0.927,0.67-1.383l0.045-0.086c-0.821-1.159-1.449-2.316-1.917-3.53
				c-4.538-11.789,3.388-23.031,8.517-28.683c1.041-1.148,2.186-2.301,3.604-3.629c0.478-0.539,0.99-1.101,1.503-1.647
				c4.964-5.283,10.895-9.968,17.632-13.926c6.861-4.031,14.655-7.342,23.165-9.841l0.614-0.172c2.194-1.742,4.46-3.367,6.735-4.832
				c16.418-10.571,36.207-14.982,53.4-17.902c6.185-1.05,11.689-1.879,16.825-2.535c10.277-4.553,21.229-7.432,30.592-9.649
				c30.022-7.11,53.942-5.683,73.127,4.362c9.968,5.219,18.033,12.535,23.325,21.157c2.309,3.761,4.013,8.01,4.805,11.973
				c1.656,2.972,2.558,6.242,2.611,9.459c0.071,4.356-1.194,8.675-3.658,12.491l0,0c-0.589,0.912-1.297,1.857-2.059,2.75
				c2.967,4.262,4.349,9.179,4,14.245c-0.268,3.886-1.61,7.767-3.884,11.221c-0.935,1.42-2.022,2.749-3.234,3.952
				c0.222,0.819,0.388,1.581,0.508,2.32c1.212,7.462-1.397,15.14-6.808,20.037c-4.108,3.719-9.452,5.946-14.351,5.994
				c-0.158,0.292-0.32,0.572-0.482,0.834c-2.299,3.673-5.64,6.866-9.661,9.232c-3.847,2.264-8.108,3.7-12.324,4.151
				c-2.037,0.218-3.998,0.218-5.846-0.001c-1.909,2.393-4.363,4.484-7.113,6.059c-3.334,1.908-7.077,3.119-10.822,3.501
				c-1.737,0.176-4.288,0.275-6.796-0.219c-0.119,0.24-0.239,0.468-0.355,0.675c-1.292,2.285-3.261,4.169-5.545,5.305
				c-3.317,1.649-6.996,1.745-11.557,0.296c-0.274,0.417-0.553,0.831-0.848,1.233c-1.925,2.613-4.232,4.957-6.859,6.968
				c-2.612,2-5.594,3.613-8.626,4.667c-1.869,0.649-3.481,1.033-4.93,1.173c-0.663,0.065-1.266,0.047-1.876-0.057
				c-0.706,0.82-1.608,1.84-2.592,2.813c-2.854,2.824-5.867,4.945-8.953,6.305c-4.334,1.908-8.895,2.135-12.887,0.645
				C132.425,196.673,125.796,199.618,118.971,199.618z M104.067,193.351l0.239,0.196c1.104,0.908,2.425,1.757,3.926,2.523
				c3.143,1.603,6.68,2.493,10.229,2.572c6.843,0.147,13.517-2.786,18.33-8.066l0.225-0.248l0.313,0.125
				c3.819,1.523,8.241,1.342,12.449-0.511c2.976-1.311,5.89-3.366,8.661-6.106c1.046-1.034,2.002-2.13,2.72-2.968l0.187-0.218
				l0.281,0.059c0.614,0.129,1.208,0.16,1.87,0.095c1.37-0.133,2.909-0.501,4.704-1.124c2.935-1.02,5.824-2.583,8.355-4.521
				c2.554-1.955,4.797-4.233,6.667-6.773c0.357-0.486,0.69-0.991,1.02-1.498l0.205-0.314l0.354,0.118
				c4.466,1.484,8.016,1.443,11.176-0.128c2.112-1.051,3.935-2.795,5.132-4.914c0.162-0.286,0.328-0.616,0.492-0.96l0.167-0.348
				l0.376,0.083c2.498,0.555,5.11,0.459,6.862,0.28c3.611-0.368,7.221-1.536,10.439-3.378c2.723-1.559,5.145-3.644,7-6.03
				l0.171-0.219l0.276,0.036c1.848,0.242,3.83,0.253,5.889,0.033c4.081-0.438,8.208-1.829,11.936-4.023
				c3.889-2.288,7.114-5.369,9.331-8.91c0.198-0.319,0.394-0.669,0.587-1.032l0.137-0.26l0.295,0.002
				c0.04,0.001,0.081,0.001,0.12,0.001c4.643,0,9.943-2.193,13.865-5.744c5.17-4.679,7.661-12.022,6.503-19.163
				c-0.128-0.786-0.311-1.6-0.561-2.491l-0.078-0.278l0.207-0.201c1.244-1.207,2.356-2.55,3.304-3.991
				c2.182-3.315,3.471-7.034,3.727-10.754c0.342-4.963-1.056-9.779-4.042-13.926l-0.225-0.313l0.255-0.29
				c0.827-0.942,1.597-1.954,2.225-2.926c2.36-3.653,3.571-7.785,3.503-11.948c-0.05-3.083-0.923-6.218-2.523-9.069l-0.053-0.144
				c-0.764-3.874-2.433-8.04-4.696-11.729c-5.201-8.474-13.136-15.668-22.948-20.806c-18.97-9.931-42.668-11.332-72.454-4.277
				c-9.339,2.212-20.265,5.084-30.487,9.621l-0.135,0.038c-5.143,0.656-10.657,1.486-16.856,2.539
				c-17.096,2.903-36.767,7.284-53.038,17.761c-2.274,1.465-4.54,3.091-6.732,4.836l-0.169,0.087l-0.7,0.197
				c-8.434,2.477-16.155,5.757-22.948,9.747c-6.656,3.911-12.516,8.538-17.416,13.754c-0.508,0.54-1.014,1.095-1.517,1.66
				c-1.428,1.34-2.556,2.476-3.58,3.604c-4.979,5.487-12.681,16.379-8.329,27.683c0.469,1.217,1.113,2.379,1.969,3.549l0.176,0.241
				l-0.315,0.618c-0.224,0.435-0.448,0.869-0.64,1.321c-1.122,2.621-1.862,5.396-2.201,8.248c-0.32,1.718-0.413,3.458-0.279,5.204
				c-0.026,0.69-0.048,1.322-0.057,1.956c-0.066,4.769,0.944,8.457,3.179,11.606l0.127,0.178l-0.021,0.251
				c-0.15,0.644-0.248,1.192-0.309,1.724c-0.395,3.469,0.425,7.226,2.309,10.578c1.851,3.289,4.626,6.194,7.613,7.97l0.177,0.105
				l0.046,0.201c0.315,1.338,0.676,2.49,0.839,2.96c1.325,3.812,3.591,7.281,6.552,10.031c5.331,4.95,12.631,7.318,20.03,6.487
				l0.224-0.025l0.164,0.156c0.264,0.252,0.533,0.501,0.816,0.743c3.182,2.729,6.786,4.686,10.714,5.82
				c4.204,1.213,8.727,1.447,13.085,0.679c0.164-0.029,0.327-0.064,0.491-0.099l0.599-0.124l0.177,0.291
				c0.232,0.381,0.47,0.716,0.727,1.024c1.777,2.126,4.671,3.474,7.938,3.696c3.066,0.211,6.341-0.463,9.734-1.995
				c0.117-0.053,0.232-0.112,0.347-0.171L104.067,193.351z"/>
		</g>
		<g>
			<path style="fill:#E4E5E6;" d="M284.355,64.894c-0.02-1.214-0.164-2.426-0.421-3.615c-0.7,2.968-1.821,5.84-3.333,8.462
				c-3.016,5.231-7.711,9.633-13.556,11.378c2.034,2.06,4.034,4.252,5.151,6.948c2.045,4.932,0,10.92-4.414,13.832
				c-1.608,1.061-3.419,1.66-5.293,1.919c1.679,1.678,3.066,3.625,3.881,5.894c1.236,3.443,0.827,7.157-0.59,10.477
				c-1.224,2.867-3.27,5.031-5.854,6.746c-2.167,1.438-4.901,2.596-7.592,2.915c0.012,1.144-0.202,2.308-0.677,3.457
				c-1.212,2.935-3.564,5.274-6.103,7.104c-2.86,2.061-6.173,3.57-9.598,4.401c-3.194,0.775-6.675,1.008-9.851,0.02
				c-0.657-0.204-1.279-0.474-1.875-0.784c-3.501,4.553-8.829,8.081-14.364,9.579c-2.325,0.629-4.88,0.911-7.239,0.283
				c-0.998,1.402-2.184,2.686-3.399,3.855c-2.013,1.938-4.293,3.76-6.817,4.988c-0.916,0.446-1.898,0.849-2.925,0.921
				c-1.691,0.12-3.465-0.305-5.023-0.933c-1.172-0.473-2.332-1.116-3.371-1.91c-2.885,5.75-8.092,10.815-14.007,13.293
				c-2.592,1.086-5.551,1.695-8.318,0.939c-3.549,4.816-8.43,9.282-14.505,9.783c-3.435,0.283-6.483-1.09-8.416-3.967
				c-0.019-0.028-0.034-0.059-0.053-0.088c-0.017,0.026-0.031,0.054-0.048,0.08c-3.808,5.943-10.19,10.026-17.361,10
				c-4.033-0.015-8.228-1.28-11.331-3.792c-3.353,2.364-7.611,3.586-11.605,3.756c-3.85,0.164-7.976-0.77-10.865-3.284
				c-4.64,1.482-9.644,1.514-14.354-0.167c-4.237-1.512-8.516-4.359-10.475-8.435c-6.456,1.474-13.433,0.407-18.452-4.268
				c-3.806-3.545-5.871-8.678-6.09-13.863c-3.659-1.481-6.184-5.205-7.325-8.951c-0.632-2.074-0.953-4.384-0.478-6.525
				c0.227-1.025,0.715-2.027,1.483-2.701c-1.878-0.536-3.614-1.472-5.094-2.78c-3.429-3.029-5.247-7.584-6.049-11.997
				c-0.086-0.472-0.156-0.949-0.222-1.426c-0.082,1.043-0.094,2.103-0.011,3.183c-0.029,0.636-0.05,1.274-0.059,1.913
				c-0.06,4.347,0.721,8.304,3.269,11.893c0.009,0.013,0.02,0.025,0.029,0.038c-0.134,0.579-0.249,1.168-0.318,1.779
				c-0.429,3.761,0.526,7.593,2.369,10.871c1.762,3.132,4.522,6.209,7.787,8.149c0.32,1.364,0.69,2.544,0.852,3.008
				c1.347,3.87,3.677,7.437,6.682,10.227c5.527,5.132,13.019,7.442,20.414,6.614c0.271,0.257,0.545,0.513,0.834,0.76
				c3.173,2.722,6.876,4.758,10.895,5.918c4.301,1.242,8.894,1.469,13.303,0.69c0.257-0.046,0.512-0.105,0.768-0.156
				c0.227,0.372,0.478,0.734,0.769,1.083c2.027,2.425,5.176,3.658,8.278,3.869c3.432,0.233,6.856-0.632,9.967-2.036
				c0.219-0.099,0.429-0.217,0.645-0.32c1.227,1.009,2.609,1.864,4.014,2.581c3.215,1.64,6.832,2.544,10.44,2.625
				c7.097,0.159,13.938-3.001,18.698-8.224c4.024,1.604,8.636,1.326,12.824-0.517c3.314-1.459,6.243-3.669,8.807-6.205
				c0.964-0.954,1.866-1.967,2.747-2.997c0.612,0.129,1.254,0.177,2.016,0.103c1.626-0.158,3.276-0.613,4.816-1.149
				c3.035-1.055,5.941-2.642,8.49-4.594c2.566-1.964,4.845-4.267,6.762-6.87c0.363-0.494,0.701-1.007,1.036-1.521
				c3.79,1.259,7.735,1.739,11.544-0.154c2.236-1.112,4.111-2.937,5.339-5.109c0.167-0.296,0.338-0.634,0.508-0.99
				c2.319,0.515,4.835,0.511,7.016,0.289c3.734-0.38,7.375-1.576,10.63-3.439c2.725-1.56,5.203-3.661,7.143-6.153
				c1.989,0.261,4.013,0.248,6.004,0.035c4.268-0.458,8.437-1.914,12.13-4.087c3.785-2.227,7.158-5.335,9.495-9.071
				c0.205-0.329,0.407-0.688,0.605-1.062c5.216,0.043,10.586-2.494,14.316-5.869c5.435-4.919,7.823-12.404,6.655-19.6
				c-0.139-0.856-0.337-1.705-0.572-2.544c1.265-1.227,2.404-2.603,3.372-4.073c2.148-3.265,3.536-7.079,3.805-10.988
				c0.36-5.231-1.203-10.174-4.132-14.242c0.858-0.978,1.631-1.997,2.268-2.983C283.117,73.485,284.426,69.221,284.355,64.894z"/>
		</g>
		<path style="opacity:0.63;fill:#EBEBEC;" d="M192.746,132.349c-2.089,0.318-3.938,1.212-5.656,2.346
			c-0.024-0.548-0.054-1.097-0.122-1.646c-0.602-4.844-3.09-9.149-7.031-12.034c-3.674-2.69-8.218-4.134-12.766-4.148
			c-5.21-0.017-10.268,1.612-14.789,4.133c-4.388,2.447-8.415,5.727-11.516,9.693c-1.478,1.89-2.734,3.964-3.615,6.201
			c-0.133,0.338-0.239,0.684-0.354,1.028c-2.942,0.231-5.84,0.994-8.149,2.057c-1.714,0.789-3.299,1.791-4.746,2.95
			c-0.579-1.871-1.403-3.669-2.552-5.307c-3.043-4.336-7.783-7.24-12.852-8.593c-1.762-0.47-3.53-0.707-5.289-0.778
			c0.572-1.092,1.083-2.219,1.488-3.399c1.788-5.201,1.703-10.959-1.143-15.77c-2.641-4.465-6.98-7.667-11.5-10.052
			c-5.091-2.687-10.704-4.755-16.476-5.218c-8.671-0.696-17.549,1.963-24.499,7.184c-2.148-2.945-4.881-5.313-8.225-6.948
			c-1.949-0.953-4.035-1.626-6.176-1.985c-2.268-0.38-4.767-0.455-6.898,0.539c-3.917,1.827-5.027,6.366-5.033,10.332
			c-0.005,3.693,0.724,7.393,2.021,10.859c-0.354,0.434-0.701,0.875-1.03,1.336c-1.458,2.044-2.703,4.256-3.586,6.609
			c-1.704,4.543-2.007,9.602-0.442,14.231c1.553,4.595,5.208,8.958,10.387,9.076c2.659,0.061,5.264-0.753,7.677-1.807
			c2.39-1.045,4.705-2.295,6.928-3.66c0.949-0.582,1.876-1.2,2.791-1.833c0.075,2.324,0.79,4.658,1.957,6.64
			c2.618,4.446,7.432,6.895,12.449,7.497c2.412,0.29,4.808,0.149,7.154-0.283c-2.887,4.906-4.48,10.745-3.187,16.391
			c0.618,2.701,1.815,5.27,3.62,7.385c2,2.344,4.68,3.864,7.623,4.705c6.131,1.752,12.887,1.196,18.935-0.61
			c5.465-1.631,10.92-4.469,15.481-8.282c0.982,1.639,2.477,3.001,4.297,3.903c4.381,2.172,9.646,1.252,14.008-0.477
			c3.895-1.544,7.461-3.898,10.459-6.819c1.406-1.37,2.683-2.872,3.819-4.473c0.307,0.358,0.622,0.708,0.962,1.032
			c3.61,3.446,8.779,4.52,13.617,3.793c5.162-0.775,9.749-3.488,13.499-7.039c3.089-2.925,5.768-6.405,7.958-10.091
			c0.147,0.226,0.293,0.451,0.463,0.671c3.27,4.237,9.532,4.067,13.757,1.49c2.245-1.37,4.089-3.353,5.523-5.541
			c1.46-2.228,2.673-4.816,2.7-7.528C204.744,134.178,197.757,131.587,192.746,132.349z"/>
		<path style="fill:#EBEBEC;" d="M63.707,168.053c-0.491-1.634-1.118-3.226-1.869-4.758c-1.52-3.103-3.544-5.975-5.963-8.442
			c-2.681-2.734-6.118-5.553-9.915-6.459c-3.057-0.73-6.737,0.432-7.999,3.409c-2.182,2.747-1.974,6.622-1.156,9.847
			c1.761,6.943,5.376,14.386,12.064,17.729c3.012,1.506,6.579,2.092,9.842,1.09c3.224-0.991,5.789-3.578,5.911-7.063
			C64.686,171.587,64.226,169.783,63.707,168.053z"/>
		<path style="opacity:0.63;fill:#EBEBEC;" d="M250.39,103.495c-1.796-3.916-5.098-6.573-9.274-7.599
			c-5.057-1.243-10.474-0.522-15.254,1.609c-0.048-0.122-0.09-0.246-0.144-0.366c-0.938-2.082-2.721-3.538-4.856-4.282
			c-2.192-0.764-4.559-0.907-6.863-0.858c-2.505,0.054-4.989,0.448-7.399,1.128c-7.264,2.05-13.521,6.957-17.344,13.392
			c-2.721,2.785-4.808,6.287-4.836,10.253c-0.034,4.798,3.271,8.426,7.779,9.652c4.645,1.264,9.693-0.128,14.026-2.03
			c-0.692,4.059,0.068,8.383,2.413,11.805c1.221,1.782,2.836,3.343,4.784,4.309c2.152,1.067,4.601,1.242,6.953,0.925
			c4.73-0.636,9.359-2.799,13.385-5.286c4.028-2.489,7.765-5.585,10.919-9.12c3.019-3.383,5.525-7.297,6.663-11.724
			C252.342,111.411,252.074,107.164,250.39,103.495z"/>
		<path style="fill:#EBEBEC;" d="M273.135,76.231c-0.884-3.125-3.964-5.038-6.918-5.888c-4.629-1.331-9.782-0.621-14.144,1.565
			c-1.386,0.504-2.736,1.123-4.043,1.881c-3.13,1.813-6.213,4.326-7.989,7.531c-0.836,1.509-1.388,3.215-1.223,4.957
			c0.171,1.808,1.166,3.379,2.41,4.653c2.403,2.461,5.786,3.802,9.178,4.092c7.403,0.634,14.061-3.625,18.859-8.909
			C271.652,83.487,274.197,79.986,273.135,76.231z"/>
		<path style="fill:#EBEBEC;" d="M72.574,112.741c-2.375-4.969-8.391-6.785-13.476-5.414c-3.904,1.052-7.089,4.01-9.033,7.607
			c-0.426-0.883-1.01-1.686-1.832-2.322c-2.481-1.919-5.922-1.891-8.826-1.129c-3.274,0.859-6.38,2.862-8.693,5.516
			c-1.421,0.939-2.407,2.63-3.135,4.174c-1.513,3.208-2.947,6.741-2.429,10.36c0.454,3.174,2.422,5.783,5.55,6.692
			c2.978,0.865,6.172,0.199,8.865-1.219c2.76-1.453,5.018-3.734,6.79-6.275c0.982-1.408,1.868-2.935,2.607-4.528
			c0.336,3.923,2.241,7.783,5.506,9.869c5.48,3.501,11.873-1.468,15.005-5.827C72.921,125.447,75.285,118.413,72.574,112.741z"/>
		<path style="fill:#EBEBEC;" d="M104.775,146.278c-1.638-3.778-4.474-7.049-8.071-9.076c-1.44-0.812-3.005-1.381-4.611-1.691
			c0.164-0.254,0.35-0.497,0.502-0.758c1.457-2.509,2.256-5.709,0.5-8.285c-1.594-2.339-4.516-3.351-7.257-3.175
			c-3.538,0.227-6.99,2.163-9.725,4.317c-1.364,1.074-2.597,2.311-3.578,3.713c-1.724,1.615-3.151,3.561-4.11,5.716
			c-1.182,2.658-1.679,6.016,0.984,7.95c2.134,1.55,4.874,1.38,7.373,0.819c-2.133,3.291-3.655,7.074-3.971,10.996
			c-0.323,4.021,0.739,8.105,3.561,11.077c2.607,2.746,6.368,4.347,10.132,4.532c8.259,0.407,15.918-5.738,18.674-13.294
			C106.713,154.913,106.556,150.386,104.775,146.278z"/>
		<path style="fill:#EBEBEC;" d="M52.807,162.008c-0.415-3.994-2.599-8.516-6.819-9.527c-2.139-0.512-4.514,0.097-5.886,1.877
			c-0.735,0.954-1.176,2.222-1.076,3.42c-0.262,1.154-0.307,2.364-0.138,3.489c0.335,2.222,1.494,4.177,2.866,5.916
			c1.308,1.66,2.861,3.435,5.032,3.869C51.671,172.027,53.182,165.617,52.807,162.008z"/>
		<path style="fill:#EBEBEC;" d="M134.447,155.046c-0.349-2.563-1.639-4.914-3.78-6.4c-2.006-1.392-4.551-1.939-6.915-1.237
			c-2.956,0.877-5.443,3.584-7.261,5.958c-1.698,2.217-3.037,4.858-3.227,7.672c-0.326,1.561-0.236,3.156,0.585,4.751
			c1.186,2.306,2.885,4.935,5.617,5.449c2.709,0.509,5.484-0.855,7.657-2.34C131.638,165.811,135.225,160.755,134.447,155.046z"/>
		<path style="fill:#EBEBEC;" d="M172.282,149.528c-0.137-1.718-1.001-3.437-2.42-4.441c-1.023-0.724-2.195-0.934-3.355-0.781
			c1.543-4.11,1.708-8.689-0.327-12.714c-1.484-2.935-4.182-4.878-7.481-5.151c-3.208-0.266-6.398,0.887-8.845,2.938
			c-2.926,2.453-4.75,6.011-5.806,9.626c-0.229,0.783-0.433,1.604-0.611,2.436c-0.291,0.709-0.517,1.432-0.675,2.122
			c-0.772,3.366-0.193,7.111,1.755,9.986c1.969,2.906,5.123,4.227,8.565,3.387c1.673-0.408,3.285-1.164,4.778-2.119
			c0.041,0.128,0.078,0.257,0.135,0.38c-0.129,0.873-0.138,1.753,0.037,2.575c0.83,3.895,5.458,4.386,8.393,2.57
			c1.718-1.063,3.016-2.725,4.032-4.444C171.587,153.984,172.462,151.79,172.282,149.528z M162.258,149.625
			c-0.766,0.913-1.619,1.746-2.532,2.514C160.208,150.955,160.995,149.867,162.258,149.625z"/>
		<path style="fill:#EBEBEC;" d="M198.795,140.513c-0.486-1.763-1.847-3.298-3.675-3.688c-0.079-0.017-0.162-0.017-0.242-0.029
			c-2.446-1.265-5.859,0.266-7.879,1.763c-2.75,2.037-4.458,5.511-2.397,8.673c2.044,3.136,6.048,3.699,9.275,2.131
			C197.035,147.829,199.804,144.173,198.795,140.513z"/>
		<path style="fill:#EBEBEC;" d="M232.246,107.004c-1.699-2.011-4.191-3.371-6.704-4.058c-2.377-0.649-4.97-0.628-7.41-0.005
			c-0.007-0.49-0.05-0.983-0.179-1.48c-0.754-2.895-3.532-3.977-6.285-3.971c-4.688,0.011-9.379,2.156-12.672,5.547
			c-2.735,2.002-5.121,4.457-7.012,7.356c-0.754,1.157-1.63,2.443-1.673,3.869c-0.039,1.292,0.632,2.479,1.558,3.342
			c2.276,2.118,5.738,2.313,8.641,1.726c3.255-0.659,6.343-2.153,9.076-4.137c-0.04,0.107-0.087,0.209-0.125,0.317
			c-0.792,2.28-0.909,4.754-0.026,7.026c0.783,2.014,2.351,3.831,4.435,4.539c2.675,0.91,5.515-0.035,7.922-1.262
			c2.435-1.242,4.68-2.848,6.639-4.754c1.963-1.909,3.835-4.162,4.813-6.749C234.202,111.773,234.036,109.121,232.246,107.004z"/>
		<path style="fill:#EBEBEC;" d="M262.603,76.48c-0.958-1.601-2.578-2.718-4.358-3.222c-3.526-0.996-7.218,0.778-9.612,3.487
			c-2.85,0.819-5.367,2.955-6.189,5.847c-0.595,2.093,0.304,4.074,2.108,5.228c2.023,1.295,4.736,1.309,7.043,1.039
			c4.319-0.506,9.265-2.648,11.188-6.821C263.597,80.272,263.615,78.171,262.603,76.48z"/>
	</g>
	<g>
		<path style="fill:#D9D9DB;" d="M22.804,156.116c1.425,2.534,3.511,5.021,5.983,6.91c11.96-10.399,29.123-14.227,44.549-14.736
			c10.175-0.336,20.205,1.391,30.268,2.65c11.812,1.478,23.866,2.643,35.72,0.934c10.222-1.474,19.554-5.355,27.932-11.355
			c7.63-5.465,14.259-12.187,20.712-18.963c6.476-6.798,12.815-13.763,19.9-19.942c7.703-6.718,16.38-12.123,25.8-16.101
			c10.246-4.326,21.451-7.148,32.625-7.006c4.247,0.054,8.585,0.474,12.915,0.731c0.572-0.708,1.112-1.422,1.565-2.124
			c2.343-3.628,3.652-7.893,3.581-12.22c-0.009-0.541-0.051-1.08-0.108-1.618c-0.014-0.134-0.03-0.267-0.047-0.401
			c-0.069-0.535-0.152-1.068-0.266-1.596c0,0,0,0,0,0c-0.429-1.986-1.17-3.91-2.165-5.682c-0.841-4.259-2.633-8.424-4.759-11.888
			c-5.542-9.032-13.794-16.091-23.136-20.982c-22.481-11.771-48.828-9.995-72.791-4.32c-10.407,2.465-20.806,5.316-30.572,9.65
			c-5.644,0.719-11.269,1.589-16.875,2.541c-18.445,3.132-37.294,7.577-53.22,17.832c-2.326,1.498-4.59,3.128-6.772,4.865
			c-0.234,0.067-0.47,0.128-0.703,0.197c-8.029,2.359-15.833,5.55-23.057,9.795c-6.428,3.777-12.414,8.4-17.524,13.84
			c-0.511,0.543-1.019,1.102-1.526,1.669c-1.228,1.151-2.43,2.338-3.577,3.601c-6.784,7.477-12.353,17.974-8.423,28.183
			c0.509,1.324,1.208,2.536,2.031,3.662c-0.286,0.563-0.585,1.12-0.834,1.702c-1.147,2.681-1.894,5.502-2.237,8.382
			c-0.22,1.178-0.328,2.385-0.334,3.616c0,0.036-0.002,0.071-0.002,0.107c0,0.521,0.015,1.046,0.055,1.576
			c-0.029,0.636-0.05,1.274-0.059,1.913c-0.06,4.347,0.721,8.304,3.269,11.893c0.009,0.013,0.02,0.026,0.029,0.038
			c-0.134,0.58-0.249,1.169-0.318,1.779C20.007,149.006,20.961,152.838,22.804,156.116z"/>
	</g>
	<g>
		<linearGradient id="SVGID_1_" gradientUnits="userSpaceOnUse" x1="73.3725" y1="-41.1817" x2="160.6724" y2="120.0663">
			<stop  offset="0" style="stop-color:#FFC210"/>
			<stop  offset="0.2066" style="stop-color:#FEBE11"/>
			<stop  offset="0.3944" style="stop-color:#FBB313"/>
			<stop  offset="0.575" style="stop-color:#F6A117"/>
			<stop  offset="0.751" style="stop-color:#EF871C"/>
			<stop  offset="0.9222" style="stop-color:#E66622"/>
			<stop  offset="1" style="stop-color:#E15426"/>
		</linearGradient>
		<path style="fill:url(#SVGID_1_);" d="M288.354,62.736c5.66-13.58-7.21-29.495-16.896-37.707
			C253.935,10.173,230.603,4.15,208.056,3.588C146.566,2.057,69.854,27.891,27.545,74.088c-13.252,14.47-23.33,34.626-22.605,54.896
			c0.302,8.447,2.579,21.373,9.238,27.435c6.658,6.06,14.067,0.058,20.294-3.846c22.804-14.297,49.348-5.04,74.322-7.665
			c34.785-3.656,62.702-25.66,90.928-44.245c13.702-9.022,27.913-17.98,43.787-22.632c11.484-3.366,24.414-0.497,35.399-5.846
			c4.063-1.978,7.643-5.195,9.407-9.356C288.327,62.798,288.341,62.767,288.354,62.736z"/>
		<path style="fill:#A94A2A;" d="M20.448,159.507c-2.222,0-4.439-0.765-6.598-2.73c-6.404-5.83-9.053-18.171-9.396-27.776
			C3.8,110.668,12.299,90.017,27.187,73.76c20.15-22.002,48.938-40.424,83.251-53.274c31.989-11.981,66.661-18.148,97.63-17.382
			c17.991,0.448,43.647,4.551,63.704,21.556c11.241,9.53,22.446,25.27,17.031,38.263l-0.042,0.097
			c-1.69,3.988-5.114,7.399-9.641,9.603c-6.334,3.085-13.377,3.478-20.189,3.859c-5.106,0.285-10.385,0.58-15.285,2.016
			c-15.602,4.573-29.554,13.286-43.656,22.571c-3.847,2.533-7.759,5.177-11.542,7.734c-24.306,16.429-49.44,33.418-79.602,36.588
			c-8.421,0.885-17.129,0.42-25.552-0.03c-16.493-0.88-33.545-1.792-48.564,7.625c-0.64,0.401-1.293,0.825-1.956,1.255
			C28.885,156.763,24.657,159.507,20.448,159.507z M202.849,4.009c-29.498,0-61.972,6.113-92.072,17.385
			C76.608,34.191,47.95,52.526,27.903,74.416C13.182,90.489,4.779,110.882,5.425,128.967c0.335,9.408,2.897,21.466,9.08,27.094
			c5.693,5.182,12.094,1.031,17.741-2.634c0.667-0.433,1.324-0.86,1.968-1.264c15.281-9.579,32.489-8.659,49.131-7.771
			c8.384,0.448,17.055,0.911,25.398,0.035c29.922-3.145,54.954-20.065,79.161-36.428c3.786-2.559,7.7-5.205,11.551-7.74
			c14.167-9.328,28.186-18.082,43.917-22.693c5.007-1.467,10.343-1.765,15.504-2.054c6.715-0.375,13.66-0.763,19.819-3.763
			c4.316-2.101,7.573-5.337,9.173-9.109l0.039-0.092c5.214-12.51-5.772-27.831-16.763-37.149
			C251.303,8.577,225.878,4.517,208.043,4.074C206.324,4.03,204.59,4.009,202.849,4.009z"/>
	</g>
	<path style="opacity:0.6;fill:#F9E4B9;" d="M145.641,123.884c-7.966,0.759-15.95,1.535-23.813,3.057
		c-7.418,1.436-14.794,3.55-21.468,7.159c-5.166,2.793-9.734,6.492-13.473,10.96c2.053,0.104,4.106,0.197,6.156,0.26
		c2.683-2.178,5.492-4.197,8.475-5.951c4.703-2.765,9.792-4.825,15.089-6.127c5.892-1.448,11.992-1.899,18.015-2.484
		c8.335-0.81,16.905-1.647,24.983-4.014c3.128-1.805,6.218-3.693,9.286-5.623C161.196,122.446,153.409,123.144,145.641,123.884z"/>
	<path style="opacity:0.6;fill:#F9E4B9;" d="M192.91,96.528c-5.809,0.516-11.636,0.748-17.452,1.168
		c-7.468,0.539-14.951,0.852-22.43,1.193c-14.282,0.65-28.67,1.144-42.567,4.787c-6.307,1.653-12.477,3.841-18.392,6.59
		c-2.934,1.363-5.805,2.861-8.601,4.488c-2.935,1.708-5.891,3.502-8.536,5.639c-8.877,7.17-15.126,16.756-22.553,25.289
		c2.93-0.561,5.895-0.913,8.885-1.113c3.826-6.726,9.359-12.404,15.49-17.085c7.525-5.744,16.059-10.126,24.891-13.482
		c9.617-3.654,19.648-5.947,29.862-7.122c12.468-1.434,25.036-1.421,37.558-1.994c9.878-0.452,19.775-1.305,29.432-3.407
		c0.408-0.27,0.816-0.547,1.224-0.816c3.346-2.203,6.723-4.401,10.146-6.535C204.27,95.335,198.54,96.028,192.91,96.528z"/>
	<path style="opacity:0.6;fill:#F9E4B9;" d="M207.527,9.264c-12.281,4.104-24.996,6.702-37.668,9.266
		c-9.531,1.929-19.105,3.636-28.665,5.416c-9.47,1.763-18.921,3.544-28.224,6.065c-18.072,4.898-35.938,11.054-52.999,18.78
		c-2.978,1.349-5.975,2.73-8.943,4.182c-8.608,6.47-16.519,13.51-23.484,21.115c-3.973,4.338-7.656,9.189-10.853,14.399
		c8.071-7.84,17.078-14.735,26.51-20.83c14.717-9.51,30.586-17.179,46.882-23.572c7.991-3.134,16.102-5.958,24.299-8.504
		c9.466-2.939,19.07-5.283,28.738-7.456c10.936-2.459,21.918-4.704,32.872-7.082c10.925-2.372,21.751-5.047,32.555-7.918
		c7.952-2.113,15.846-4.414,23.757-6.662c-4.081-0.903-8.216-1.579-12.364-2.053C215.904,6.271,211.736,7.858,207.527,9.264z"/>
	<path style="opacity:0.6;fill:#F9E4B9;" d="M271.458,25.029c-0.467-0.396-0.955-0.761-1.43-1.145
		c-7.739,5.701-17.832,7.93-27.14,9.432c-9.964,1.607-20.045,2.194-30.103,2.886c-12.723,0.874-25.435,2.287-38.124,3.55
		c-15.055,1.498-30.121,3.328-44.884,6.717c-14.216,3.263-27.862,8.327-41.043,14.544c-13.288,6.268-26.057,13.673-38.071,22.132
		c-5.774,4.066-11.611,8.271-16.874,12.988c-4.964,4.448-9.356,9.509-13.028,15.073c-3.992,6.049-6.614,12.614-9.22,19.343
		c-1.584,4.091-3.12,8.212-4.547,12.37c1.43,5.294,3.704,10.335,7.182,13.501c0.019,0.018,0.039,0.03,0.058,0.047
		c-0.283-1.055-0.514-2.123-0.689-3.205c-1.418-8.785,0.639-17.727,4.155-25.78c3.802-8.706,9.355-16.652,15.772-23.628
		c6.43-6.99,13.956-12.572,21.834-17.821c9.445-6.293,19.318-11.944,29.465-17.025c20.148-10.09,41.488-18.104,63.599-22.611
		c22.897-4.667,46.282-5.955,69.493-8.191c19.243-1.854,38.546-4.444,57.065-10.015C273.751,27.044,272.583,25.983,271.458,25.029z"
		/>
	<path style="opacity:0.6;fill:#F9E4B9;" d="M202.499,63.774c-11.736-0.481-23.494,0.311-35.135,1.799
		c-11.662,1.492-23.221,3.693-34.729,6.081c-10.282,2.133-20.324,5.043-30.054,9.015c-9.767,3.987-19.135,8.911-28.1,14.462
		c-7.716,4.777-15.029,10.002-21.726,16.142c-6.877,6.306-13.22,13.306-18.424,21.066c-4.828,7.198-8.908,15.322-9.884,24.037
		c-0.047,0.419-0.507,0.547-0.777,0.396c0.001,0.262,0.001,0.524,0.004,0.786c1.58-0.619,3.146-1.473,4.675-2.406
		c0.671-1.382,1.34-2.764,2.012-4.144c3.427-7.049,6.924-14.097,11.235-20.656c4.276-6.507,9.381-12.438,15.399-17.396
		c13.554-11.169,29.246-19.943,45.488-26.532c16.914-6.862,34.791-10.726,52.865-12.976c18.927-2.356,38.075-3.194,57.136-2.726
		c16.819,0.413,33.979,1.009,50.413-2.939c0.106-0.168,0.213-0.337,0.326-0.502c-8.536-0.379-17.068-0.829-25.597-1.328
		C225.92,65.265,214.212,64.253,202.499,63.774z"/>
	
		<linearGradient id="SVGID_00000105423928231383208340000015129781428979216269_" gradientUnits="userSpaceOnUse" x1="98.0725" y1="-80.0892" x2="147.3712" y2="92.4562">
		<stop  offset="0" style="stop-color:#EF9A21"/>
		<stop  offset="1" style="stop-color:#E15426"/>
	</linearGradient>
	<path style="opacity:0.5;fill:url(#SVGID_00000105423928231383208340000015129781428979216269_);" d="M271.458,25.029
		c-17.523-14.856-40.855-20.879-63.402-21.44c-8.965-0.223-18.26,0.152-27.719,1.071c5.854-0.051,11.706,0.113,17.535,0.596
		c10.8,0.896,22.229,2.688,31.811,8.058c3.75,2.102,7.185,4.858,9.65,8.411c2.435,3.509,3.709,7.662,3.908,11.913
		c0.296,6.354-1.367,12.969-5.102,18.148c-5.277,7.318-13.613,11.771-21.745,15.204c-9.504,4.012-19.395,7.291-29.219,10.412
		c-11.888,3.777-23.929,7.369-35.062,13.092c-10.397,5.345-19.356,12.77-28.35,20.14c-8.25,6.76-16.807,13.291-26.848,17.158
		c-5.834,2.247-11.878,3.363-18.106,3.717c-6.355,0.362-12.741,0.116-19.081,0.756c-6.046,0.61-12.092,2.141-17.219,5.505
		c-4.501,2.954-8.42,6.701-12.673,9.983c-3.549,2.738-7.842,5.88-12.497,6.099c-2.489,0.117-4.791-0.68-6.77-2.035
		c1.03,1.76,2.219,3.336,3.608,4.601c6.658,6.06,14.067,0.058,20.294-3.846c22.804-14.297,49.348-5.041,74.322-7.665
		c34.785-3.656,62.702-25.66,90.928-44.245c13.702-9.022,27.913-17.98,43.787-22.632c11.484-3.366,24.414-0.497,35.399-5.846
		c4.063-1.978,7.643-5.195,9.407-9.356c0.013-0.031,0.026-0.062,0.039-0.093C294.014,49.156,281.144,33.241,271.458,25.029z"/>
	
		<linearGradient id="SVGID_00000044860481742941251220000010986482345580291721_" gradientUnits="userSpaceOnUse" x1="112.627" y1="-84.2478" x2="161.9258" y2="88.2979">
		<stop  offset="0" style="stop-color:#EF9A21"/>
		<stop  offset="1" style="stop-color:#E15426"/>
	</linearGradient>
	<path style="opacity:0.5;fill:url(#SVGID_00000044860481742941251220000010986482345580291721_);" d="M282.877,60.49
		c-4.766,2.39-10.063,3.37-15.317,3.969c-5.801,0.662-11.664,0.836-17.422,1.858c-5.816,1.033-11.185,3.171-16.247,6.197
		c-4.959,2.964-9.552,6.483-14.351,9.688c-4.945,3.303-10.136,6.124-15.653,8.351c-11.537,4.657-23.794,7.511-34.134,14.735
		c-9.247,6.46-16.797,15.054-26.255,21.238c-10.262,6.71-22.394,10.409-34.474,12.012c-10.48,1.391-20.97,0.602-31.491,1.061
		c-9.269,0.405-18.682,1.578-27.38,4.959c-2.906,1.13-5.661,2.534-8.222,4.199c21.021-8.619,44.566-1.506,66.863-3.85
		c34.785-3.656,62.702-25.66,90.928-44.245c13.702-9.022,27.913-17.98,43.787-22.632c11.484-3.366,24.414-0.497,35.399-5.846
		c4.063-1.978,7.643-5.195,9.407-9.356c0.013-0.031,0.026-0.062,0.039-0.093c1.029-2.467,1.439-5.013,1.374-7.574
		C287.903,57.421,285.435,59.207,282.877,60.49z"/>
	<path style="opacity:0.55;fill:#FFFBCB;" d="M108.411,81.543c-4.526-1.329-9.087-2.541-13.678-3.627
		C85.196,75.66,75.53,73.94,65.8,72.765c-2.684-0.324-8.526-0.283-9.073-3.932c-0.313-2.088,1.742-3.84,3.112-5.094
		c1.898-1.738,3.803-3.468,5.705-5.203c1.803-1.644,3.75-3.213,5.438-4.974c1.086-1.132,2.295-3.283,0.624-4.486
		c-1.405-1.011-3.552-0.1-4.987,0.382c-2.103,0.706-4.13,1.619-6.076,2.681c-1.228,0.67-2.367,1.445-3.458,2.292
		c-4.662,2.906-9.033,6.253-13.062,10.034c-3.112,2.921-6.05,6.117-8.62,9.527c-2.499,3.316-4.714,7.189-5.247,11.374
		c-0.207,1.63-0.111,3.588,1.275,4.702c1.539,1.236,3.677,0.673,5.354,0.08c3.882-1.373,7.447-3.496,11.11-5.346
		c3.942-1.991,8.078-3.567,12.568-3.324c4.798,0.261,9.59,1.829,14.151,3.244c4.706,1.46,9.344,3.135,13.928,4.938
		c2.047,0.805,4.122,1.586,6.106,2.54c1.699,0.817,3.446,1.87,4.387,3.568c0.83,1.498,1.234,3.342,3.324,3.319
		c1.907-0.022,3.938-1.407,5.488-2.408c1.686-1.09,3.264-2.378,4.67-3.812c1.352-1.379,2.834-2.986,3.636-4.763
		C118.29,83.371,111.459,82.438,108.411,81.543z"/>
	<path style="opacity:0.55;fill:#FFFBCB;" d="M28.089,94.356c-0.674-0.749-1.718-0.673-2.56-0.283
		c-0.075,0.023-0.153,0.037-0.226,0.067c-0.262,0.109-0.486,0.256-0.691,0.422c-0.085-0.064-0.217-0.076-0.328,0
		c-1.439,0.986-2.324,2.638-2.808,4.284c-0.236,0.804-0.492,1.707-0.399,2.554c0.025,0.229,0.095,0.458,0.194,0.674
		c0.065,0.396,0.243,0.76,0.627,0.97c0.62,0.339,1.374,0.105,1.933-0.25c0.538-0.341,1.029-0.798,1.475-1.279
		c0.1-0.083,0.205-0.167,0.299-0.248c0.642-0.553,1.217-1.215,1.686-1.92c0.489-0.735,0.899-1.564,1.132-2.417
		C28.658,96.08,28.722,95.06,28.089,94.356z"/>
	<path style="opacity:0.36;fill:#F9E5C2;" d="M129.182,66.345c-3.822-4.393-9.899-7.361-15.59-8.853
		c-3.336-0.875-6.729-1.508-10.077-2.333c-3.344-0.825-6.99-1.805-9.921-3.684c-3.254-2.085-1.574-5.596,0.208-8.099
		c1.046-1.47,2.209-2.864,3.321-4.285c1.168-1.492,2.63-2.977,3.525-4.651c3.291-6.153-7.519-3.419-9.829-2.473
		C71.802,39.75,53.862,51.644,39.088,65.91C25.58,78.953,16.422,93.769,8.651,110.677c-0.799,1.738-1.615,3.564-1.51,5.475
		s1.466,3.898,3.376,4.009c1.041,0.061,2.029-0.426,2.938-0.936c8.3-4.657,13.483-15.076,23.942-15.204
		c8.19-0.1,14.969,5.45,22.697,7.302c7.336,1.758,14.974,2.156,22.466,1.337c15.264-1.667,30.03-8.367,41.109-19.036
		c3.791-3.651,7.269-7.879,8.726-12.937C133.876,75.539,132.694,70.382,129.182,66.345z"/>
	<path style="opacity:0.55;fill:#F9E5C2;" d="M148.551,105.96c-0.397-1.167-1.388-1.906-2.539-2.237
		c-2.543-0.731-5.569,0.038-8.052,0.69c-3.234,0.85-6.316,2.28-8.787,4.568c-1.096,1.015-2.077,2.212-2.81,3.515
		c-0.228,0.406-0.455,0.841-0.656,1.291c-0.532,0.687-1.028,1.404-1.476,2.152c-0.721,1.202-1.523,2.588-1.181,4.04
		c0.308,1.304,1.412,2.21,2.668,2.551c1.475,0.401,3.132,0.143,4.603-0.165c1.42-0.297,2.814-0.727,4.156-1.275
		c2.789-1.138,5.438-2.702,7.872-4.471c2.304-1.675,4.426-3.668,5.637-6.291C148.594,109.009,149.036,107.385,148.551,105.96z"/>
</g>
</svg>
